#define font_width 8
#define font_height 3072
static unsigned char font_bits[] = {
 0x00, 0x00, 0x00, 0x00, 0x00, 0x00, 0x00, 0x00, 0x00, 0x00, 0x00, 0x00,
 0x00, 0x00, 0x67, 0x45, 0x45, 0x45, 0x47, 0x00, 0x7F, 0x00, 0x00, 0x00,
 0x00, 0x00, 0x77, 0x45, 0x75, 0x15, 0x77, 0x00, 0x7F, 0x00, 0x00, 0x00,
 0x00, 0x00, 0x77, 0x45, 0x75, 0x45, 0x77, 0x00, 0x7F, 0x00, 0x00, 0x00,
 0x00, 0x00, 0x57, 0x55, 0x75, 0x45, 0x47, 0x00, 0x7F, 0x00, 0x00, 0x00,
 0x00, 0x00, 0x77, 0x15, 0x75, 0x45, 0x77, 0x00, 0x7F, 0x00, 0x00, 0x00,
 0x00, 0x00, 0x77, 0x15, 0x75, 0x55, 0x77, 0x00, 0x7F, 0x00, 0x00, 0x00,
 0x00, 0x00, 0x77, 0x55, 0x55, 0x45, 0x47, 0x00, 0x7F, 0x00, 0x00, 0x00,
 0x00, 0x00, 0x77, 0x55, 0x75, 0x55, 0x77, 0x00, 0x7F, 0x00, 0x00, 0x00,
 0x00, 0x00, 0x77, 0x55, 0x75, 0x45, 0x77, 0x00, 0x7F, 0x00, 0x00, 0x00,
 0x00, 0x00, 0x76, 0x54, 0x54, 0x54, 0x74, 0x00, 0x7F, 0x00, 0x00, 0x00,
 0x00, 0x00, 0x66, 0x44, 0x44, 0x44, 0x44, 0x00, 0x7F, 0x00, 0x00, 0x00,
 0x00, 0x00, 0x76, 0x44, 0x74, 0x14, 0x74, 0x00, 0x7F, 0x00, 0x00, 0x00,
 0x00, 0x00, 0x76, 0x44, 0x74, 0x44, 0x74, 0x00, 0x7F, 0x00, 0x00, 0x00,
 0x00, 0x00, 0x56, 0x54, 0x74, 0x44, 0x44, 0x00, 0x7F, 0x00, 0x00, 0x00,
 0x00, 0x00, 0x76, 0x14, 0x74, 0x44, 0x74, 0x00, 0x7F, 0x00, 0x00, 0x00,
 0x00, 0x00, 0x76, 0x14, 0x74, 0x54, 0x74, 0x00, 0x7F, 0x00, 0x00, 0x00,
 0x00, 0x00, 0x76, 0x54, 0x54, 0x44, 0x44, 0x00, 0x7F, 0x00, 0x00, 0x00,
 0x00, 0x00, 0x76, 0x54, 0x74, 0x54, 0x74, 0x00, 0x7F, 0x00, 0x00, 0x00,
 0x00, 0x00, 0x76, 0x54, 0x74, 0x44, 0x74, 0x00, 0x7F, 0x00, 0x00, 0x00,
 0x00, 0x00, 0x77, 0x54, 0x57, 0x51, 0x77, 0x00, 0x7F, 0x00, 0x00, 0x00,
 0x00, 0x00, 0x67, 0x44, 0x47, 0x41, 0x47, 0x00, 0x7F, 0x00, 0x00, 0x00,
 0x00, 0x00, 0x77, 0x44, 0x77, 0x11, 0x77, 0x00, 0x7F, 0x00, 0x00, 0x00,
 0x00, 0x00, 0x77, 0x44, 0x77, 0x41, 0x77, 0x00, 0x7F, 0x00, 0x00, 0x00,
 0x00, 0x00, 0x57, 0x54, 0x77, 0x41, 0x47, 0x00, 0x7F, 0x00, 0x00, 0x00,
 0x00, 0x00, 0x77, 0x14, 0x77, 0x41, 0x77, 0x00, 0x7F, 0x00, 0x00, 0x00,
 0x00, 0x00, 0x77, 0x14, 0x77, 0x51, 0x77, 0x00, 0x7F, 0x00, 0x00, 0x00,
 0x00, 0x00, 0x77, 0x54, 0x57, 0x41, 0x47, 0x00, 0x7F, 0x00, 0x00, 0x00,
 0x00, 0x00, 0x77, 0x54, 0x77, 0x51, 0x77, 0x00, 0x7F, 0x00, 0x00, 0x00,
 0x00, 0x00, 0x77, 0x54, 0x77, 0x41, 0x77, 0x00, 0x7F, 0x00, 0x00, 0x00,
 0x00, 0x00, 0x77, 0x54, 0x57, 0x54, 0x77, 0x00, 0x7F, 0x00, 0x00, 0x00,
 0x00, 0x00, 0x67, 0x44, 0x47, 0x44, 0x47, 0x00, 0x7F, 0x00, 0x00, 0x00,
 0x00, 0x00, 0x00, 0x00, 0x00, 0x00, 0x00, 0x00, 0x00, 0x00, 0x00, 0x00,
 0x00, 0x00, 0x08, 0x08, 0x08, 0x08, 0x08, 0x00, 0x08, 0x00, 0x00, 0x00,
 0x00, 0x00, 0x14, 0x14, 0x00, 0x00, 0x00, 0x00, 0x00, 0x00, 0x00, 0x00,
 0x00, 0x00, 0x22, 0x7F, 0x22, 0x22, 0x22, 0x7F, 0x22, 0x00, 0x00, 0x00,
 0x00, 0x14, 0x7F, 0x15, 0x15, 0x7F, 0x54, 0x54, 0x7F, 0x14, 0x00, 0x00,
 0x00, 0x00, 0x47, 0x25, 0x17, 0x08, 0x74, 0x52, 0x71, 0x00, 0x00, 0x00,
 0x00, 0x00, 0x1F, 0x11, 0x0B, 0x45, 0x6B, 0x11, 0x3F, 0x00, 0x00, 0x00,
 0x00, 0x00, 0x08, 0x08, 0x00, 0x00, 0x00, 0x00, 0x00, 0x00, 0x00, 0x00,
 0x00, 0x00, 0x18, 0x04, 0x04, 0x04, 0x04, 0x04, 0x18, 0x00, 0x00, 0x00,
 0x00, 0x00, 0x0C, 0x10, 0x10, 0x10, 0x10, 0x10, 0x0C, 0x00, 0x00, 0x00,
 0x00, 0x00, 0x08, 0x2A, 0x1C, 0x7F, 0x1C, 0x2A, 0x08, 0x00, 0x00, 0x00,
 0x00, 0x00, 0x00, 0x08, 0x08, 0x3E, 0x08, 0x08, 0x00, 0x00, 0x00, 0x00,
 0x00, 0x00, 0x00, 0x00, 0x00, 0x00, 0x00, 0x08, 0x08, 0x00, 0x00, 0x00,
 0x00, 0x00, 0x00, 0x00, 0x00, 0x3E, 0x00, 0x00, 0x00, 0x00, 0x00, 0x00,
 0x00, 0x00, 0x00, 0x00, 0x00, 0x00, 0x00, 0x00, 0x08, 0x00, 0x00, 0x00,
 0x00, 0x00, 0x40, 0x20, 0x10, 0x08, 0x04, 0x02, 0x01, 0x00, 0x00, 0x00,
 0x00, 0x00, 0x7F, 0x41, 0x41, 0x49, 0x41, 0x41, 0x7F, 0x00, 0x00, 0x00,
 0x00, 0x00, 0x1C, 0x10, 0x10, 0x10, 0x10, 0x10, 0x10, 0x00, 0x00, 0x00,
 0x00, 0x00, 0x7F, 0x40, 0x40, 0x7C, 0x02, 0x01, 0x7F, 0x00, 0x00, 0x00,
 0x00, 0x00, 0x7F, 0x40, 0x40, 0x7E, 0x40, 0x40, 0x7F, 0x00, 0x00, 0x00,
 0x00, 0x00, 0x41, 0x41, 0x41, 0x7F, 0x40, 0x40, 0x40, 0x00, 0x00, 0x00,
 0x00, 0x00, 0x7F, 0x01, 0x01, 0x7F, 0x40, 0x41, 0x7F, 0x00, 0x00, 0x00,
 0x00, 0x00, 0x7F, 0x01, 0x01, 0x7F, 0x41, 0x41, 0x7F, 0x00, 0x00, 0x00,
 0x00, 0x00, 0x7F, 0x41, 0x40, 0x40, 0x40, 0x40, 0x40, 0x00, 0x00, 0x00,
 0x00, 0x00, 0x7F, 0x41, 0x41, 0x7F, 0x41, 0x41, 0x7F, 0x00, 0x00, 0x00,
 0x00, 0x00, 0x7F, 0x41, 0x41, 0x7F, 0x40, 0x40, 0x7F, 0x00, 0x00, 0x00,
 0x00, 0x00, 0x00, 0x08, 0x00, 0x00, 0x00, 0x08, 0x00, 0x00, 0x00, 0x00,
 0x00, 0x00, 0x00, 0x08, 0x00, 0x00, 0x00, 0x08, 0x08, 0x00, 0x00, 0x00,
 0x00, 0x00, 0x10, 0x08, 0x04, 0x02, 0x04, 0x08, 0x10, 0x00, 0x00, 0x00,
 0x00, 0x00, 0x00, 0x00, 0x3E, 0x00, 0x3E, 0x00, 0x00, 0x00, 0x00, 0x00,
 0x00, 0x00, 0x04, 0x08, 0x10, 0x20, 0x10, 0x08, 0x04, 0x00, 0x00, 0x00,
 0x00, 0x00, 0x7F, 0x41, 0x40, 0x78, 0x00, 0x00, 0x08, 0x00, 0x00, 0x00,
 0x00, 0x00, 0x7F, 0x41, 0x5D, 0x55, 0x7D, 0x01, 0x7F, 0x00, 0x00, 0x00,
 0x00, 0x00, 0x7F, 0x41, 0x41, 0x7F, 0x41, 0x41, 0x41, 0x00, 0x00, 0x00,
 0x00, 0x00, 0x7F, 0x42, 0x42, 0x3E, 0x42, 0x42, 0x7F, 0x00, 0x00, 0x00,
 0x00, 0x00, 0x7F, 0x01, 0x01, 0x01, 0x01, 0x01, 0x7F, 0x00, 0x00, 0x00,
 0x00, 0x00, 0x3F, 0x42, 0x42, 0x42, 0x42, 0x42, 0x3F, 0x00, 0x00, 0x00,
 0x00, 0x00, 0x7F, 0x01, 0x01, 0x3F, 0x01, 0x01, 0x7F, 0x00, 0x00, 0x00,
 0x00, 0x00, 0x7F, 0x01, 0x01, 0x3F, 0x01, 0x01, 0x01, 0x00, 0x00, 0x00,
 0x00, 0x00, 0x7F, 0x01, 0x01, 0x71, 0x41, 0x41, 0x7F, 0x00, 0x00, 0x00,
 0x00, 0x00, 0x41, 0x41, 0x41, 0x7F, 0x41, 0x41, 0x41, 0x00, 0x00, 0x00,
 0x00, 0x00, 0x08, 0x08, 0x08, 0x08, 0x08, 0x08, 0x08, 0x00, 0x00, 0x00,
 0x00, 0x00, 0x40, 0x40, 0x40, 0x40, 0x40, 0x41, 0x7F, 0x00, 0x00, 0x00,
 0x00, 0x00, 0x41, 0x21, 0x11, 0x0F, 0x11, 0x21, 0x41, 0x00, 0x00, 0x00,
 0x00, 0x00, 0x01, 0x01, 0x01, 0x01, 0x01, 0x01, 0x7F, 0x00, 0x00, 0x00,
 0x00, 0x00, 0x7F, 0x49, 0x49, 0x49, 0x49, 0x41, 0x41, 0x00, 0x00, 0x00,
 0x00, 0x00, 0x41, 0x43, 0x45, 0x49, 0x51, 0x61, 0x41, 0x00, 0x00, 0x00,
 0x00, 0x00, 0x7F, 0x41, 0x41, 0x41, 0x41, 0x41, 0x7F, 0x00, 0x00, 0x00,
 0x00, 0x00, 0x7F, 0x41, 0x41, 0x7F, 0x01, 0x01, 0x01, 0x00, 0x00, 0x00,
 0x00, 0x00, 0x7F, 0x41, 0x41, 0x41, 0x51, 0x21, 0x5F, 0x00, 0x00, 0x00,
 0x00, 0x00, 0x7F, 0x42, 0x42, 0x3E, 0x42, 0x42, 0x42, 0x00, 0x00, 0x00,
 0x00, 0x00, 0x7F, 0x01, 0x01, 0x7F, 0x40, 0x40, 0x7F, 0x00, 0x00, 0x00,
 0x00, 0x00, 0x7F, 0x08, 0x08, 0x08, 0x08, 0x08, 0x08, 0x00, 0x00, 0x00,
 0x00, 0x00, 0x41, 0x41, 0x41, 0x41, 0x41, 0x41, 0x7F, 0x00, 0x00, 0x00,
 0x00, 0x00, 0x41, 0x41, 0x41, 0x41, 0x22, 0x14, 0x08, 0x00, 0x00, 0x00,
 0x00, 0x00, 0x41, 0x41, 0x41, 0x49, 0x49, 0x49, 0x7F, 0x00, 0x00, 0x00,
 0x00, 0x00, 0x41, 0x22, 0x14, 0x08, 0x14, 0x22, 0x41, 0x00, 0x00, 0x00,
 0x00, 0x00, 0x41, 0x41, 0x41, 0x7F, 0x08, 0x08, 0x08, 0x00, 0x00, 0x00,
 0x00, 0x00, 0x7F, 0x20, 0x10, 0x08, 0x04, 0x02, 0x7F, 0x00, 0x00, 0x00,
 0x00, 0x00, 0x1C, 0x04, 0x04, 0x04, 0x04, 0x04, 0x1C, 0x00, 0x00, 0x00,
 0x00, 0x00, 0x01, 0x02, 0x04, 0x08, 0x10, 0x20, 0x40, 0x00, 0x00, 0x00,
 0x00, 0x00, 0x1C, 0x10, 0x10, 0x10, 0x10, 0x10, 0x1C, 0x00, 0x00, 0x00,
 0x00, 0x00, 0x08, 0x14, 0x22, 0x00, 0x00, 0x00, 0x00, 0x00, 0x00, 0x00,
 0x00, 0x00, 0x00, 0x00, 0x00, 0x00, 0x00, 0x00, 0x00, 0x00, 0xFF, 0x00,
 0x00, 0x00, 0x04, 0x08, 0x10, 0x00, 0x00, 0x00, 0x00, 0x00, 0x00, 0x00,
 0x00, 0x00, 0x00, 0x00, 0x3E, 0x21, 0x21, 0x21, 0x7E, 0x00, 0x00, 0x00,
 0x00, 0x00, 0x01, 0x01, 0x3F, 0x41, 0x41, 0x41, 0x3F, 0x00, 0x00, 0x00,
 0x00, 0x00, 0x00, 0x00, 0x7E, 0x01, 0x01, 0x01, 0x7E, 0x00, 0x00, 0x00,
 0x00, 0x00, 0x40, 0x40, 0x7E, 0x41, 0x41, 0x41, 0x7E, 0x00, 0x00, 0x00,
 0x00, 0x00, 0x00, 0x00, 0x3E, 0x41, 0x7F, 0x01, 0x7E, 0x00, 0x00, 0x00,
 0x00, 0x00, 0x18, 0x08, 0x1C, 0x08, 0x08, 0x08, 0x08, 0x00, 0x00, 0x00,
 0x00, 0x00, 0x00, 0x00, 0x7E, 0x41, 0x41, 0x41, 0x7E, 0x40, 0x7E, 0x00,
 0x00, 0x00, 0x01, 0x01, 0x7F, 0x41, 0x41, 0x41, 0x41, 0x00, 0x00, 0x00,
 0x00, 0x00, 0x00, 0x08, 0x00, 0x08, 0x08, 0x08, 0x08, 0x00, 0x00, 0x00,
 0x00, 0x00, 0x40, 0x00, 0x40, 0x40, 0x40, 0x40, 0x7F, 0x00, 0x00, 0x00,
 0x00, 0x00, 0x01, 0x01, 0x41, 0x21, 0x1F, 0x21, 0x41, 0x00, 0x00, 0x00,
 0x00, 0x00, 0x04, 0x04, 0x04, 0x04, 0x04, 0x04, 0x1C, 0x00, 0x00, 0x00,
 0x00, 0x00, 0x00, 0x00, 0x7F, 0x49, 0x49, 0x49, 0x49, 0x00, 0x00, 0x00,
 0x00, 0x00, 0x00, 0x00, 0x7F, 0x41, 0x41, 0x41, 0x41, 0x00, 0x00, 0x00,
 0x00, 0x00, 0x00, 0x00, 0x7F, 0x41, 0x41, 0x41, 0x7F, 0x00, 0x00, 0x00,
 0x00, 0x00, 0x00, 0x00, 0x7F, 0x41, 0x41, 0x41, 0x7F, 0x01, 0x01, 0x00,
 0x00, 0x00, 0x00, 0x00, 0x7F, 0x41, 0x41, 0x41, 0x7F, 0x40, 0x40, 0x00,
 0x00, 0x00, 0x00, 0x00, 0x1C, 0x04, 0x04, 0x04, 0x04, 0x00, 0x00, 0x00,
 0x00, 0x00, 0x00, 0x00, 0x7F, 0x01, 0x3E, 0x40, 0x7F, 0x00, 0x00, 0x00,
 0x00, 0x00, 0x04, 0x04, 0x1F, 0x04, 0x04, 0x04, 0x7C, 0x00, 0x00, 0x00,
 0x00, 0x00, 0x00, 0x00, 0x41, 0x41, 0x41, 0x41, 0x7F, 0x00, 0x00, 0x00,
 0x00, 0x00, 0x00, 0x00, 0x41, 0x41, 0x22, 0x14, 0x08, 0x00, 0x00, 0x00,
 0x00, 0x00, 0x00, 0x00, 0x41, 0x49, 0x49, 0x49, 0x7F, 0x00, 0x00, 0x00,
 0x00, 0x00, 0x00, 0x00, 0x41, 0x36, 0x08, 0x36, 0x41, 0x00, 0x00, 0x00,
 0x00, 0x00, 0x00, 0x00, 0x41, 0x41, 0x41, 0x41, 0x7F, 0x40, 0x7E, 0x00,
 0x00, 0x00, 0x00, 0x00, 0x7F, 0x20, 0x1C, 0x02, 0x7F, 0x00, 0x00, 0x00,
 0x00, 0x00, 0x38, 0x08, 0x08, 0x0E, 0x08, 0x08, 0x38, 0x00, 0x00, 0x00,
 0x00, 0x00, 0x08, 0x08, 0x08, 0x08, 0x08, 0x08, 0x08, 0x00, 0x00, 0x00,
 0x00, 0x00, 0x0E, 0x08, 0x08, 0x38, 0x08, 0x08, 0x0E, 0x00, 0x00, 0x00,
 0x00, 0x00, 0x00, 0x00, 0x4F, 0x49, 0x79, 0x00, 0x00, 0x00, 0x00, 0x00,
 0x00, 0x00, 0x7F, 0x41, 0x41, 0x41, 0x41, 0x41, 0x7F, 0x00, 0x00, 0x00,
 0x00, 0x00, 0x7F, 0x41, 0x41, 0x41, 0x41, 0x41, 0x7F, 0x00, 0x00, 0x00,
 0x00, 0x00, 0x7F, 0x41, 0x41, 0x41, 0x41, 0x41, 0x7F, 0x00, 0x00, 0x00,
 0x00, 0x00, 0x7F, 0x41, 0x41, 0x41, 0x41, 0x41, 0x7F, 0x00, 0x00, 0x00,
 0x00, 0x00, 0x7F, 0x41, 0x41, 0x41, 0x41, 0x41, 0x7F, 0x00, 0x00, 0x00,
 0x00, 0x00, 0x7F, 0x41, 0x41, 0x41, 0x41, 0x41, 0x7F, 0x00, 0x00, 0x00,
 0x00, 0x00, 0x7F, 0x41, 0x41, 0x41, 0x41, 0x41, 0x7F, 0x00, 0x00, 0x00,
 0x00, 0x00, 0x7F, 0x41, 0x41, 0x41, 0x41, 0x41, 0x7F, 0x00, 0x00, 0x00,
 0x00, 0x00, 0x7F, 0x41, 0x41, 0x41, 0x41, 0x41, 0x7F, 0x00, 0x00, 0x00,
 0x00, 0x00, 0x7F, 0x41, 0x41, 0x41, 0x41, 0x41, 0x7F, 0x00, 0x00, 0x00,
 0x00, 0x00, 0x7F, 0x41, 0x41, 0x41, 0x41, 0x41, 0x7F, 0x00, 0x00, 0x00,
 0x00, 0x00, 0x7F, 0x41, 0x41, 0x41, 0x41, 0x41, 0x7F, 0x00, 0x00, 0x00,
 0x00, 0x00, 0x7F, 0x41, 0x41, 0x41, 0x41, 0x41, 0x7F, 0x00, 0x00, 0x00,
 0x00, 0x00, 0x7F, 0x41, 0x41, 0x41, 0x41, 0x41, 0x7F, 0x00, 0x00, 0x00,
 0x00, 0x00, 0x7F, 0x41, 0x41, 0x41, 0x41, 0x41, 0x7F, 0x00, 0x00, 0x00,
 0x00, 0x00, 0x7F, 0x41, 0x41, 0x41, 0x41, 0x41, 0x7F, 0x00, 0x00, 0x00,
 0x00, 0x00, 0x7F, 0x41, 0x41, 0x41, 0x41, 0x41, 0x7F, 0x00, 0x00, 0x00,
 0x00, 0x00, 0x7F, 0x41, 0x41, 0x41, 0x41, 0x41, 0x7F, 0x00, 0x00, 0x00,
 0x00, 0x00, 0x7F, 0x41, 0x41, 0x41, 0x41, 0x41, 0x7F, 0x00, 0x00, 0x00,
 0x00, 0x00, 0x7F, 0x41, 0x41, 0x41, 0x41, 0x41, 0x7F, 0x00, 0x00, 0x00,
 0x00, 0x00, 0x7F, 0x41, 0x41, 0x41, 0x41, 0x41, 0x7F, 0x00, 0x00, 0x00,
 0x00, 0x00, 0x7F, 0x41, 0x41, 0x41, 0x41, 0x41, 0x7F, 0x00, 0x00, 0x00,
 0x00, 0x00, 0x7F, 0x41, 0x41, 0x41, 0x41, 0x41, 0x7F, 0x00, 0x00, 0x00,
 0x00, 0x00, 0x7F, 0x41, 0x41, 0x41, 0x41, 0x41, 0x7F, 0x00, 0x00, 0x00,
 0x00, 0x00, 0x7F, 0x41, 0x41, 0x41, 0x41, 0x41, 0x7F, 0x00, 0x00, 0x00,
 0x00, 0x00, 0x7F, 0x41, 0x41, 0x41, 0x41, 0x41, 0x7F, 0x00, 0x00, 0x00,
 0x00, 0x00, 0x7F, 0x41, 0x41, 0x41, 0x41, 0x41, 0x7F, 0x00, 0x00, 0x00,
 0x00, 0x00, 0x7F, 0x41, 0x41, 0x41, 0x41, 0x41, 0x7F, 0x00, 0x00, 0x00,
 0x00, 0x00, 0x7F, 0x41, 0x41, 0x41, 0x41, 0x41, 0x7F, 0x00, 0x00, 0x00,
 0x00, 0x00, 0x7F, 0x41, 0x41, 0x41, 0x41, 0x41, 0x7F, 0x00, 0x00, 0x00,
 0x00, 0x00, 0x7F, 0x41, 0x41, 0x41, 0x41, 0x41, 0x7F, 0x00, 0x00, 0x00,
 0x00, 0x00, 0x7F, 0x41, 0x41, 0x41, 0x41, 0x41, 0x7F, 0x00, 0x00, 0x00,
 0x00, 0x00, 0x7F, 0x41, 0x41, 0x41, 0x41, 0x41, 0x7F, 0x00, 0x00, 0x00,
 0x00, 0x00, 0x7F, 0x41, 0x41, 0x41, 0x41, 0x41, 0x7F, 0x00, 0x00, 0x00,
 0x00, 0x00, 0x7F, 0x41, 0x41, 0x41, 0x41, 0x41, 0x7F, 0x00, 0x00, 0x00,
 0x00, 0x00, 0x7F, 0x41, 0x41, 0x41, 0x41, 0x41, 0x7F, 0x00, 0x00, 0x00,
 0x00, 0x00, 0x7F, 0x41, 0x41, 0x41, 0x41, 0x41, 0x7F, 0x00, 0x00, 0x00,
 0x00, 0x00, 0x7F, 0x41, 0x41, 0x41, 0x41, 0x41, 0x7F, 0x00, 0x00, 0x00,
 0x00, 0x00, 0x7F, 0x41, 0x41, 0x41, 0x41, 0x41, 0x7F, 0x00, 0x00, 0x00,
 0x00, 0x00, 0x7F, 0x41, 0x41, 0x41, 0x41, 0x41, 0x7F, 0x00, 0x00, 0x00,
 0x00, 0x00, 0x7F, 0x41, 0x41, 0x41, 0x41, 0x41, 0x7F, 0x00, 0x00, 0x00,
 0x00, 0x00, 0x7F, 0x41, 0x41, 0x41, 0x41, 0x41, 0x7F, 0x00, 0x00, 0x00,
 0x00, 0x00, 0x7F, 0x41, 0x41, 0x41, 0x41, 0x41, 0x7F, 0x00, 0x00, 0x00,
 0x00, 0x00, 0x7F, 0x41, 0x41, 0x41, 0x41, 0x41, 0x7F, 0x00, 0x00, 0x00,
 0x00, 0x00, 0x7F, 0x41, 0x41, 0x41, 0x41, 0x41, 0x7F, 0x00, 0x00, 0x00,
 0x00, 0x00, 0x7F, 0x41, 0x41, 0x41, 0x41, 0x41, 0x7F, 0x00, 0x00, 0x00,
 0x00, 0x00, 0x7F, 0x41, 0x41, 0x41, 0x41, 0x41, 0x7F, 0x00, 0x00, 0x00,
 0x00, 0x00, 0x7F, 0x41, 0x41, 0x41, 0x41, 0x41, 0x7F, 0x00, 0x00, 0x00,
 0x00, 0x00, 0x7F, 0x41, 0x41, 0x41, 0x41, 0x41, 0x7F, 0x00, 0x00, 0x00,
 0x00, 0x00, 0x7F, 0x41, 0x41, 0x41, 0x41, 0x41, 0x7F, 0x00, 0x00, 0x00,
 0x00, 0x00, 0x7F, 0x41, 0x41, 0x41, 0x41, 0x41, 0x7F, 0x00, 0x00, 0x00,
 0x00, 0x00, 0x7F, 0x41, 0x41, 0x41, 0x41, 0x41, 0x7F, 0x00, 0x00, 0x00,
 0x00, 0x00, 0x7F, 0x41, 0x41, 0x41, 0x41, 0x41, 0x7F, 0x00, 0x00, 0x00,
 0x00, 0x00, 0x7F, 0x41, 0x41, 0x41, 0x41, 0x41, 0x7F, 0x00, 0x00, 0x00,
 0x00, 0x00, 0x7F, 0x41, 0x41, 0x41, 0x41, 0x41, 0x7F, 0x00, 0x00, 0x00,
 0x00, 0x00, 0x7F, 0x41, 0x41, 0x41, 0x41, 0x41, 0x7F, 0x00, 0x00, 0x00,
 0x00, 0x00, 0x7F, 0x41, 0x41, 0x41, 0x41, 0x41, 0x7F, 0x00, 0x00, 0x00,
 0x00, 0x00, 0x7F, 0x41, 0x41, 0x41, 0x41, 0x41, 0x7F, 0x00, 0x00, 0x00,
 0x00, 0x00, 0x7F, 0x41, 0x41, 0x41, 0x41, 0x41, 0x7F, 0x00, 0x00, 0x00,
 0x00, 0x00, 0x7F, 0x41, 0x41, 0x41, 0x41, 0x41, 0x7F, 0x00, 0x00, 0x00,
 0x00, 0x00, 0x7F, 0x41, 0x41, 0x41, 0x41, 0x41, 0x7F, 0x00, 0x00, 0x00,
 0x00, 0x00, 0x7F, 0x41, 0x41, 0x41, 0x41, 0x41, 0x7F, 0x00, 0x00, 0x00,
 0x00, 0x00, 0x7F, 0x41, 0x41, 0x41, 0x41, 0x41, 0x7F, 0x00, 0x00, 0x00,
 0x00, 0x00, 0x7F, 0x41, 0x41, 0x41, 0x41, 0x41, 0x7F, 0x00, 0x00, 0x00,
 0x00, 0x00, 0x7F, 0x41, 0x41, 0x41, 0x41, 0x41, 0x7F, 0x00, 0x00, 0x00,
 0x00, 0x00, 0x7F, 0x41, 0x41, 0x41, 0x41, 0x41, 0x7F, 0x00, 0x00, 0x00,
 0x00, 0x00, 0x7F, 0x41, 0x41, 0x41, 0x41, 0x41, 0x7F, 0x00, 0x00, 0x00,
 0x00, 0x00, 0x7F, 0x41, 0x41, 0x41, 0x41, 0x41, 0x7F, 0x00, 0x00, 0x00,
 0x00, 0x00, 0x7F, 0x41, 0x41, 0x41, 0x41, 0x41, 0x7F, 0x00, 0x00, 0x00,
 0x00, 0x00, 0x7F, 0x41, 0x41, 0x41, 0x41, 0x41, 0x7F, 0x00, 0x00, 0x00,
 0x00, 0x00, 0x7F, 0x41, 0x41, 0x41, 0x41, 0x41, 0x7F, 0x00, 0x00, 0x00,
 0x00, 0x00, 0x7F, 0x41, 0x41, 0x41, 0x41, 0x41, 0x7F, 0x00, 0x00, 0x00,
 0x00, 0x00, 0x7F, 0x41, 0x41, 0x41, 0x41, 0x41, 0x7F, 0x00, 0x00, 0x00,
 0x00, 0x00, 0x7F, 0x41, 0x41, 0x41, 0x41, 0x41, 0x7F, 0x00, 0x00, 0x00,
 0x00, 0x00, 0x7F, 0x41, 0x41, 0x41, 0x41, 0x41, 0x7F, 0x00, 0x00, 0x00,
 0x00, 0x00, 0x7F, 0x41, 0x41, 0x41, 0x41, 0x41, 0x7F, 0x00, 0x00, 0x00,
 0x00, 0x00, 0x7F, 0x41, 0x41, 0x41, 0x41, 0x41, 0x7F, 0x00, 0x00, 0x00,
 0x00, 0x00, 0x7F, 0x41, 0x41, 0x41, 0x41, 0x41, 0x7F, 0x00, 0x00, 0x00,
 0x00, 0x00, 0x7F, 0x41, 0x41, 0x41, 0x41, 0x41, 0x7F, 0x00, 0x00, 0x00,
 0x00, 0x00, 0x7F, 0x41, 0x41, 0x41, 0x41, 0x41, 0x7F, 0x00, 0x00, 0x00,
 0x00, 0x00, 0x7F, 0x41, 0x41, 0x41, 0x41, 0x41, 0x7F, 0x00, 0x00, 0x00,
 0x00, 0x00, 0x7F, 0x41, 0x41, 0x41, 0x41, 0x41, 0x7F, 0x00, 0x00, 0x00,
 0x00, 0x00, 0x7F, 0x41, 0x41, 0x41, 0x41, 0x41, 0x7F, 0x00, 0x00, 0x00,
 0x00, 0x00, 0x7F, 0x41, 0x41, 0x41, 0x41, 0x41, 0x7F, 0x00, 0x00, 0x00,
 0x00, 0x00, 0x7F, 0x41, 0x41, 0x41, 0x41, 0x41, 0x7F, 0x00, 0x00, 0x00,
 0x00, 0x00, 0x7F, 0x41, 0x41, 0x41, 0x41, 0x41, 0x7F, 0x00, 0x00, 0x00,
 0x00, 0x00, 0x7F, 0x41, 0x41, 0x41, 0x41, 0x41, 0x7F, 0x00, 0x00, 0x00,
 0x00, 0x00, 0x7F, 0x41, 0x41, 0x41, 0x41, 0x41, 0x7F, 0x00, 0x00, 0x00,
 0x00, 0x00, 0x7F, 0x41, 0x41, 0x41, 0x41, 0x41, 0x7F, 0x00, 0x00, 0x00,
 0x00, 0x00, 0x7F, 0x41, 0x41, 0x41, 0x41, 0x41, 0x7F, 0x00, 0x00, 0x00,
 0x00, 0x00, 0x7F, 0x41, 0x41, 0x41, 0x41, 0x41, 0x7F, 0x00, 0x00, 0x00,
 0x00, 0x00, 0x7F, 0x41, 0x41, 0x41, 0x41, 0x41, 0x7F, 0x00, 0x00, 0x00,
 0x00, 0x00, 0x7F, 0x41, 0x41, 0x41, 0x41, 0x41, 0x7F, 0x00, 0x00, 0x00,
 0x00, 0x00, 0x7F, 0x41, 0x41, 0x41, 0x41, 0x41, 0x7F, 0x00, 0x00, 0x00,
 0x00, 0x00, 0x7F, 0x41, 0x41, 0x41, 0x41, 0x41, 0x7F, 0x00, 0x00, 0x00,
 0x00, 0x00, 0x7F, 0x41, 0x41, 0x41, 0x41, 0x41, 0x7F, 0x00, 0x00, 0x00,
 0x00, 0x00, 0x7F, 0x41, 0x41, 0x41, 0x41, 0x41, 0x7F, 0x00, 0x00, 0x00,
 0x00, 0x00, 0x7F, 0x41, 0x41, 0x41, 0x41, 0x41, 0x7F, 0x00, 0x00, 0x00,
 0x00, 0x00, 0x7F, 0x41, 0x41, 0x41, 0x41, 0x41, 0x7F, 0x00, 0x00, 0x00,
 0x00, 0x00, 0x7F, 0x41, 0x41, 0x41, 0x41, 0x41, 0x7F, 0x00, 0x00, 0x00,
 0x00, 0x00, 0x7F, 0x41, 0x41, 0x41, 0x41, 0x41, 0x7F, 0x00, 0x00, 0x00,
 0x00, 0x00, 0x7F, 0x41, 0x41, 0x41, 0x41, 0x41, 0x7F, 0x00, 0x00, 0x00,
 0x00, 0x00, 0x7F, 0x41, 0x41, 0x41, 0x41, 0x41, 0x7F, 0x00, 0x00, 0x00,
 0x00, 0x00, 0x7F, 0x41, 0x41, 0x41, 0x41, 0x41, 0x7F, 0x00, 0x00, 0x00,
 0x00, 0x00, 0x7F, 0x41, 0x41, 0x41, 0x41, 0x41, 0x7F, 0x00, 0x00, 0x00,
 0x00, 0x00, 0x7F, 0x41, 0x41, 0x41, 0x41, 0x41, 0x7F, 0x00, 0x00, 0x00,
 0x00, 0x00, 0x7F, 0x41, 0x41, 0x41, 0x41, 0x41, 0x7F, 0x00, 0x00, 0x00,
 0x00, 0x00, 0x7F, 0x41, 0x41, 0x41, 0x41, 0x41, 0x7F, 0x00, 0x00, 0x00,
 0x00, 0x00, 0x7F, 0x41, 0x41, 0x41, 0x41, 0x41, 0x7F, 0x00, 0x00, 0x00,
 0x00, 0x00, 0x7F, 0x41, 0x41, 0x41, 0x41, 0x41, 0x7F, 0x00, 0x00, 0x00,
 0x00, 0x00, 0x7F, 0x41, 0x41, 0x41, 0x41, 0x41, 0x7F, 0x00, 0x00, 0x00,
 0x00, 0x00, 0x7F, 0x41, 0x41, 0x41, 0x41, 0x41, 0x7F, 0x00, 0x00, 0x00,
 0x00, 0x00, 0x7F, 0x41, 0x41, 0x41, 0x41, 0x41, 0x7F, 0x00, 0x00, 0x00,
 0x00, 0x00, 0x7F, 0x41, 0x41, 0x41, 0x41, 0x41, 0x7F, 0x00, 0x00, 0x00,
 0x00, 0x00, 0x7F, 0x41, 0x41, 0x41, 0x41, 0x41, 0x7F, 0x00, 0x00, 0x00,
 0x00, 0x00, 0x7F, 0x41, 0x41, 0x41, 0x41, 0x41, 0x7F, 0x00, 0x00, 0x00,
 0x00, 0x00, 0x7F, 0x41, 0x41, 0x41, 0x41, 0x41, 0x7F, 0x00, 0x00, 0x00,
 0x00, 0x00, 0x7F, 0x41, 0x41, 0x41, 0x41, 0x41, 0x7F, 0x00, 0x00, 0x00,
 0x00, 0x00, 0x7F, 0x41, 0x41, 0x41, 0x41, 0x41, 0x7F, 0x00, 0x00, 0x00,
 0x00, 0x00, 0x7F, 0x41, 0x41, 0x41, 0x41, 0x41, 0x7F, 0x00, 0x00, 0x00,
 0x00, 0x00, 0x7F, 0x41, 0x41, 0x41, 0x41, 0x41, 0x7F, 0x00, 0x00, 0x00,
 0x00, 0x00, 0x7F, 0x41, 0x41, 0x41, 0x41, 0x41, 0x7F, 0x00, 0x00, 0x00,
 0x00, 0x00, 0x7F, 0x41, 0x41, 0x41, 0x41, 0x41, 0x7F, 0x00, 0x00, 0x00,
 0x00, 0x00, 0x7F, 0x41, 0x41, 0x41, 0x41, 0x41, 0x7F, 0x00, 0x00, 0x00,
 0x00, 0x00, 0x7F, 0x41, 0x41, 0x41, 0x41, 0x41, 0x7F, 0x00, 0x00, 0x00,
 0x00, 0x00, 0x7F, 0x41, 0x41, 0x41, 0x41, 0x41, 0x7F, 0x00, 0x00, 0x00,
 0x00, 0x00, 0x7F, 0x41, 0x41, 0x41, 0x41, 0x41, 0x7F, 0x00, 0x00, 0x00,
 0x00, 0x00, 0x7F, 0x41, 0x41, 0x41, 0x41, 0x41, 0x7F, 0x00, 0x00, 0x00,
 0x00, 0x00, 0x7F, 0x41, 0x41, 0x41, 0x41, 0x41, 0x7F, 0x00, 0x00, 0x00 };
